<svg width="420" height="420" viewBox="0 0 420 420" fill="none" xmlns="http://www.w3.org/2000/svg">
<circle cx="326" cy="190" r="10" fill="#FADA73"/>
<path d="M54 306.627L73.799 286.828L93.598 306.627L73.799 326.426L54 306.627Z" fill="#FAB4B4"/>
<path d="M336 47L353 30L370 47L353 64L336 47Z" fill="#EBEDF0"/>
<path d="M188 387L202 373L216 387L202 401L188 387Z" fill="#84DBAF"/>
<path d="M346 279H394V327H346V279Z" fill="#EBEDF0"/>
<path d="M346 275H398V327H346V275Z" fill="#EBEDF0"/>
<path d="M22 255H56C65.9411 255 74 263.059 74 273V307H40C30.0589 307 22 298.941 22 289V255Z" fill="#EBEDF0"/>
<path fill-rule="evenodd" clip-rule="evenodd" d="M74 287.033V307H54.3692L54 306.631L73.799 286.832L74 287.033Z" fill="#E5462E"/>
<path d="M70 43C70 45.1012 70.4139 47.1817 71.2179 49.1229L65.7575 51.3847L71.2179 49.1229C72.022 51.0641 73.2006 52.828 74.6863 54.3137C76.172 55.7994 77.9359 56.978 79.8771 57.7821C81.8183 58.5861 83.8989 59 86 59C88.1012 59 90.1817 58.5861 92.1229 57.7821C94.0641 56.978 95.828 55.7994 97.3137 54.3137C98.7994 52.828 99.978 51.0641 100.782 49.1229C101.586 47.1817 102 45.1012 102 43C102 40.8988 101.586 38.8183 100.782 36.8771C99.978 34.9359 98.7994 33.172 97.3137 31.6863C95.828 30.2006 94.0641 29.022 92.1229 28.2179C90.1817 27.4139 88.1011 27 86 27C83.8988 27 81.8183 27.4139 79.8771 28.2179C77.9359 29.022 76.172 30.2006 74.6863 31.6863L69.0294 26.0294L74.6863 31.6863C73.2006 33.172 72.022 34.9359 71.2179 36.8771C70.4139 38.8183 70 40.8988 70 43Z" stroke="#B2EBCE" stroke-width="16"/>
<path d="M327 320H344C348.971 320 353 324.029 353 329V346H336C331.029 346 327 341.971 327 337V320Z" stroke="#EBEDF0" stroke-width="14"/>
<path fill-rule="evenodd" clip-rule="evenodd" d="M359.876 327H346V313.123C353.238 314.026 358.974 319.762 359.876 327Z" fill="#F5BC00"/>
<path d="M92 49H116V73H92V49Z" fill="#EBEDF0"/>
<path fill-rule="evenodd" clip-rule="evenodd" d="M109.238 49C108.958 50.0826 108.603 51.1468 108.173 52.1844C106.967 55.0962 105.199 57.742 102.971 59.9706C100.742 62.1992 98.0962 63.967 95.1844 65.1731C94.1468 65.6029 93.0826 65.9584 92 66.2379V49H109.238Z" fill="#17BD6A"/>
<rect x="214" y="102" width="40" height="40" rx="20" transform="rotate(-90 214 102)" fill="#D1E3FF"/>
<path d="M244 72H252C256.418 72 260 68.4183 260 64C260 59.5817 256.418 56 252 56C247.582 56 244 59.5817 244 64V72Z" stroke="#E2E7EB" stroke-width="8"/>
<path fill-rule="evenodd" clip-rule="evenodd" d="M252 75.9989H240V63.9989C240 63.6386 240.016 63.282 240.047 62.9297C246.229 64.8883 251.111 69.7699 253.069 75.9519C252.717 75.9831 252.36 75.9989 252 75.9989Z" fill="#B4D0FA"/>
<rect x="114" y="124" width="180" height="180" rx="90" fill="white"/>
<path d="M191.75 217.823C191.75 216.068 191.152 214.374 190.199 212.9C189.332 211.559 188.499 210.109 187.667 208.581C183.583 201.085 183.583 200.549 183.583 193.054V185.29C183.583 169.763 187.667 162 204 162C220.333 162 224.417 169.763 224.417 185.29V193.054C224.417 200.549 224.417 201.085 220.333 208.581C219.501 210.109 218.668 211.559 217.801 212.9C216.848 214.374 216.25 216.068 216.25 217.823V221.367C216.25 225.209 218.995 228.472 222.713 229.443C240.007 233.957 253 242.589 253 251.681V285.075C253 287.551 251.859 289.88 249.758 291.189C243.074 295.353 226.486 304 204 304C181.514 304 164.926 295.353 158.242 291.189C156.141 289.88 155 287.551 155 285.075V251.681C155 242.589 167.993 233.957 185.287 229.443C189.005 228.472 191.75 225.209 191.75 221.367V217.823Z" fill="#F6F7F8"/>
<path d="M193.25 217.823C193.25 215.725 192.537 213.753 191.458 212.085C190.62 210.789 189.807 209.375 188.984 207.863C186.922 204.079 186.003 202.24 185.548 200.448C185.093 198.661 185.083 196.865 185.083 193.054V185.29C185.083 177.572 186.119 172.206 188.844 168.752C191.495 165.392 196.037 163.5 204 163.5C211.963 163.5 216.505 165.392 219.156 168.752C221.881 172.206 222.917 177.572 222.917 185.29V193.054C222.917 196.865 222.907 198.661 222.452 200.448C221.997 202.24 221.078 204.079 219.016 207.863C218.193 209.375 217.38 210.789 216.542 212.085C215.463 213.753 214.75 215.725 214.75 217.823V221.367C214.75 225.952 218.016 229.767 222.334 230.894C230.863 233.12 238.252 236.343 243.471 240.066C248.749 243.831 251.5 247.871 251.5 251.681V285.075C251.5 287.098 250.573 288.914 248.964 289.916C242.417 293.995 226.106 302.5 204 302.5C181.894 302.5 165.583 293.995 159.036 289.916C157.427 288.914 156.5 287.098 156.5 285.075V251.681C156.5 247.871 159.251 243.831 164.529 240.066C169.748 236.343 177.137 233.12 185.666 230.894C189.984 229.767 193.25 225.952 193.25 221.367V217.823Z" stroke="#D3D7DB" stroke-width="3"/>
<rect x="118" y="128" width="172" height="172" rx="86" stroke="#F6F7F8" stroke-width="8"/>
<rect x="115.5" y="125.5" width="177" height="177" rx="88.5" stroke="#D3D7DB" stroke-width="3"/>
<path fill-rule="evenodd" clip-rule="evenodd" d="M283 257.152C271.282 278.56 251.116 294.683 226.986 301.039L211.351 285.445C209.846 283.944 209 281.906 209 279.78V240.778C209 236.359 212.625 232.751 216.882 231.567C225.828 229.08 235.366 223.313 240.998 219.54C244.006 217.526 247.994 217.526 251.002 219.54C256.634 223.313 266.172 229.08 275.118 231.567C279.375 232.751 283 236.359 283 240.778V257.152Z" fill="#D3D7DB"/>
<path d="M218 232.129C218 228.815 220.71 226.131 223.942 225.399C233.765 223.174 244.714 216.405 250.293 212.624C252.52 211.115 255.48 211.115 257.707 212.624C263.286 216.405 274.235 223.174 284.058 225.399C287.29 226.131 290 228.815 290 232.129V272.005C290 273.612 289.356 275.151 288.212 276.279L258.212 305.848C255.876 308.151 252.124 308.151 249.788 305.848L219.788 276.279C218.644 275.151 218 273.612 218 272.005V232.129Z" fill="#2E77E5"/>
<path fill-rule="evenodd" clip-rule="evenodd" d="M264 276C267.75 276 269 274.75 269 271V256C269 252.25 267.75 251 264 251H244C240.25 251 239 252.25 239 256V271C239 274.75 240.25 276 244 276H264ZM254 266C255.381 266 256.5 264.881 256.5 263.5C256.5 262.119 255.381 261 254 261C252.619 261 251.5 262.119 251.5 263.5C251.5 264.881 252.619 266 254 266Z" fill="#F0F6FC"/>
<path d="M244 243.5V251H249V244.75C249 242.25 250.25 241 254 241C257.75 241 259 242.25 259 244.75V251H264V243.5C264 239.75 260.25 236 256.5 236H251.5C247.75 236 244 239.75 244 243.5Z" fill="#F0F6FC"/>
</svg>
