<svg width="162" height="49" viewBox="0 0 162 49" fill="none" xmlns="http://www.w3.org/2000/svg">
<g filter="url(#filter0_d)">
<path d="M24 46C36.1503 46 46 36.1503 46 24C46 11.8497 36.1503 2 24 2C11.8497 2 2 11.8497 2 24C2 36.1503 11.8497 46 24 46Z" fill="white"/>
</g>
<path d="M29.7926 31.6529C28.1822 32.8739 26.1755 33.5996 23.9985 33.5996C21.8104 33.5996 19.7946 32.8665 18.1802 31.6338L13.3008 36.4597C16.1753 38.9297 19.9111 40.4263 23.9985 40.4263C28.0671 40.4263 31.7872 38.9439 34.6564 36.494L29.7926 31.6529Z" fill="#04ADE0"/>
<path d="M33.3172 21.6861C33.5005 22.4272 33.5992 23.2011 33.5992 23.9984C33.5992 26.1596 32.8848 28.1536 31.6797 29.7579L36.5429 34.5986C39.0378 31.6459 40.4265 27.8931 40.4265 23.9984C40.4265 21.3431 39.779 18.7505 38.5742 16.4297L33.3172 21.6861Z" fill="#F54949"/>
<path d="M16.2982 29.7362C15.1039 28.1359 14.3972 26.1517 14.3972 24.0012C14.3972 18.6993 18.6952 14.4012 23.9971 14.4012C25.5303 14.4012 26.9781 14.7623 28.2638 15.4016L33.2217 10.4432C30.5848 8.63651 27.4054 7.57422 23.9971 7.57422C14.9854 7.57422 7.57031 14.9897 7.57031 24.0012C7.57031 27.8771 8.94548 31.6134 11.42 34.5608L16.2982 29.7362Z" fill="#00BC6A"/>
<path d="M23.0533 27.9503C22.626 27.9503 22.1981 27.7872 21.8722 27.4609L18.6457 24.2346C17.9931 23.5823 17.9931 22.5247 18.6457 21.8726C19.2974 21.2201 20.3557 21.2201 21.0078 21.8726L23.0533 23.9177L36.1058 10.8654C36.7577 10.2128 37.8161 10.2128 38.4681 10.8654C39.1206 11.5175 39.1206 12.5754 38.4681 13.2277L24.2343 27.4609C23.9083 27.7872 23.4807 27.9503 23.0533 27.9503Z" fill="#3A3E42"/>
<path d="M60.7465 32.0336H64.4733V20.8617H69.4424V17.1737L55.7773 17.1377V20.8617H60.7465V32.0336Z" fill="#292E33"/>
<path d="M79.3807 29.5509L75.6539 24.6104V32.0336H71.927V17.1377L74.4116 17.1737L79.3807 23.3443L84.3498 17.1737L86.8344 17.1377V32.0336H83.1075V24.6104L79.3807 29.5509Z" fill="#292E33"/>
<path d="M100.5 25.827H94.2881V28.8771H102.984V32.0695L90.5612 32.0696V17.1377H102.984V20.241H94.2881V23.3443H100.5V25.827Z" fill="#292E33"/>
<path fill-rule="evenodd" clip-rule="evenodd" d="M127.83 28.3096H125.345V32.0696H121.618V17.1377H128.451C132.178 17.1377 134.662 18.9935 134.662 22.7237C134.662 25.2001 132.799 27.0683 131.557 27.689L135.283 32.0336H130.935L127.83 28.3096ZM130.935 22.7237C130.935 20.8617 129.693 20.241 127.83 20.241H125.345V25.1778L127.83 25.2063C129.693 25.2063 130.935 24.5857 130.935 22.7237Z" fill="#292E33"/>
<path d="M139.01 32.0336V17.1377H142.737V32.0336H139.01Z" fill="#292E33"/>
<path d="M114.165 32.0696L110.438 32.0696V20.8977H105.469V17.1737H119.134V20.8977H114.165V32.0696Z" fill="#292E33"/>
<path d="M160.767 29.7622C159.286 31.4712 157.082 32.5549 154.621 32.5549C150.163 32.5549 146.548 28.9981 146.548 24.6105C146.548 20.2229 150.163 16.666 154.621 16.666C157.081 16.666 159.284 17.7488 160.765 19.4565L157.9 21.789C157.121 20.8041 155.942 20.1764 154.622 20.1764C152.275 20.1764 150.373 22.1616 150.373 24.6105C150.373 27.0594 152.275 29.0446 154.622 29.0446C155.943 29.0446 157.123 28.4159 157.902 27.4296L160.767 29.7622Z" fill="#292E33"/>
<defs>
<filter id="filter0_d" x="0" y="0.5" width="48" height="48" filterUnits="userSpaceOnUse" color-interpolation-filters="sRGB">
<feFlood flood-opacity="0" result="BackgroundImageFix"/>
<feColorMatrix in="SourceAlpha" type="matrix" values="0 0 0 0 0 0 0 0 0 0 0 0 0 0 0 0 0 0 127 0"/>
<feOffset dy="0.5"/>
<feGaussianBlur stdDeviation="1"/>
<feColorMatrix type="matrix" values="0 0 0 0 0.0578824 0 0 0 0 0.109333 0 0 0 0 0.160784 0 0 0 0.32 0"/>
<feBlend mode="normal" in2="BackgroundImageFix" result="effect1_dropShadow"/>
<feBlend mode="normal" in="SourceGraphic" in2="effect1_dropShadow" result="shape"/>
</filter>
</defs>
</svg>
